<?xml version="1.0" encoding="utf-8"?><svg viewBox="0 0 82 82" xmlns="http://www.w3.org/2000/svg" xmlns:xlink="http://www.w3.org/1999/xlink"><style>:root>svg{display:none}:root>svg:target{display:block}</style><svg fill="none" viewBox="0 0 82 82" id="Group" xmlns="http://www.w3.org/2000/svg">
    <path d="M41.371.407C19.081.407.948 18.541.948 40.83c0 22.29 18.133 40.423 40.423 40.423 22.291 0 40.424-18.134 40.424-40.423S63.662.407 41.37.407Zm0 77.478c-20.432 0-37.054-16.623-37.054-37.055S20.939 3.776 41.37 3.776c20.433 0 37.055 16.622 37.055 37.054 0 20.432-16.622 37.055-37.055 37.055Z" fill="#fff"/>
    <path d="m57.442 39.414-23.58-15.159a1.68 1.68 0 0 0-1.717-.062 1.682 1.682 0 0 0-.879 1.479v30.317a1.682 1.682 0 0 0 2.596 1.416l23.58-15.159c.48-.309.773-.843.773-1.416 0-.572-.293-1.107-.773-1.416Zm-22.807 13.49V28.756l18.78 12.073-18.78 12.073Z" fill="#fff"/>
</svg></svg>